<?xml version="1.0" encoding="UTF-8" standalone="no"?>
<!-- Created with Inkscape (http://www.inkscape.org/) -->

<svg
   xmlns:dc="http://purl.org/dc/elements/1.1/"
   xmlns:cc="http://creativecommons.org/ns#"
   xmlns:rdf="http://www.w3.org/1999/02/22-rdf-syntax-ns#"
   xmlns:svg="http://www.w3.org/2000/svg"
   xmlns="http://www.w3.org/2000/svg"
   xmlns:sodipodi="http://sodipodi.sourceforge.net/DTD/sodipodi-0.dtd"
   xmlns:inkscape="http://www.inkscape.org/namespaces/inkscape"
   width="290.85303mm"
   height="168.19771mm"
   viewBox="0 0 290.85303 168.19771"
   version="1.1"
   id="svg8"
   inkscape:version="0.92.3 (2405546, 2018-03-11)"
   sodipodi:docname="ttv.svg">
  <defs
     id="defs2" />
  <sodipodi:namedview
     id="base"
     pagecolor="#ffffff"
     bordercolor="#666666"
     borderopacity="1.0"
     inkscape:pageopacity="0.0"
     inkscape:pageshadow="2"
     inkscape:zoom="0.35"
     inkscape:cx="573.50875"
     inkscape:cy="516.33035"
     inkscape:document-units="mm"
     inkscape:current-layer="layer1"
     showgrid="false"
     inkscape:window-width="2560"
     inkscape:window-height="1377"
     inkscape:window-x="1912"
     inkscape:window-y="-8"
     inkscape:window-maximized="1" />
  <metadata
     id="metadata5">
    <rdf:RDF>
      <cc:Work
         rdf:about="">
        <dc:format>image/svg+xml</dc:format>
        <dc:type
           rdf:resource="http://purl.org/dc/dcmitype/StillImage" />
        <dc:title></dc:title>
      </cc:Work>
    </rdf:RDF>
  </metadata>
  <g
     inkscape:label="Layer 1"
     inkscape:groupmode="layer"
     id="layer1"
     transform="translate(9.3976971,-45.867753)">
    <path
       class="ttv"
       style="fill:#000000;stroke-width:0.28222221"
       d="m 96.136989,214.01022 c -5.50447,-0.25719 -12.38507,-0.73121 -16.22778,-1.11797 -36.0752,-3.63089 -67.15776,-14.72981 -80.47848043,-28.73714 -2.89996997,-3.04945 -4.21414997,-4.9555 -5.34208997,-7.748 -2.25095,-5.57279 -0.91431,-11.5551 3.65825,-16.37295 0.6405,-0.67486 2.27606997,-2.17596 3.63459,-3.33577 2.65608,-2.26759 3.15957,-2.92031 2.89518,-3.75332 -0.0932,-0.29352 -1.8655,-2.06479 -3.93853003,-3.93616 -2.07302997,-1.87137 -4.50124997,-4.37524 -5.39604997,-5.56414 -3.75687,-4.99172 -5.0942696,-9.85244 -3.93521,-14.30237 2.79763,-10.74086 18.24117,-20.35545 42.6179004,-26.53238 15.01574,-3.804905 29.88548,-5.643525 45.57889,-5.635765 12.85611,0.006 22.223871,1.07402 30.754001,3.505115 3.53069,1.00625 5.5462,2.04285 6.11656,3.14581 0.37403,0.7233 0.37134,0.88474 -0.0248,1.48941 -0.84706,1.29277 -1.9273,1.58738 -6.76945,1.84621 -19.365831,1.03515 -35.590741,5.40101 -48.138481,12.95329 -4.96866,2.99055 -9.76189,7.38175 -11.81867,10.82738 -1.81014,3.03243 -2.39553,5.05966 -2.41558,8.36527 -0.0283,4.67344 1.22257,7.71669 5.39534,13.12586 2.64249,3.42548 3.47667,4.90715 3.47667,6.17532 0,1.93993 -0.95156,3.37521 -3.94817,5.95517 -3.49215,3.00661 -4.65095,4.34302 -5.75301,6.63476 -0.76314,1.58695 -0.88215,2.14103 -0.88215,4.10696 0,2.03021 0.10338,2.47619 0.96959,4.18276 4.84853,9.55237 24.9702,17.47387 52.37041,20.61719 16.630611,1.90784 35.574541,1.90849 53.339991,0.002 18.04017,-1.93616 34.86388,-5.53972 51.8779,-11.11202 3.34566,-1.09574 6.3768,-1.99031 6.73589,-1.98794 1.97626,0.0131 1.62651,1.47263 -0.67598,2.82098 -0.82135,0.48098 -3.33486,1.7719 -5.58558,2.86871 -24.40819,11.8945 -52.49844,19.06609 -82.69111,21.11151 -4.5142,0.30582 -21.655291,0.57738 -25.400001,0.40242 z m 12.479801,-36.81813 c -5.68941,-1.13535 -6.74715,-6.9828 -2.05673,-11.37013 2.11001,-1.97367 4.14144,-2.83163 7.01199,-2.96146 2.06201,-0.0933 2.51049,-0.0204 3.82145,0.62101 2.91455,1.42595 3.94329,4.11559 2.76263,7.22284 -1.64953,4.34119 -7.05804,7.38201 -11.53934,6.48774 z m 73.45687,-16.51775 c -11.32493,-0.67237 -21.50422,-2.40911 -24.53691,-4.18639 -1.44369,-0.84606 -2.13954,-2.15869 -1.53244,-2.89074 0.70287,-0.84752 2.11199,-1.20324 5.92884,-1.49668 24.56514,-1.88853 45.66483,-9.24742 56.83713,-19.82293 2.85056,-2.69829 4.53859,-4.96175 5.99052,-8.03261 1.01694,-2.15086 1.04633,-2.30378 1.05174,-5.47192 0.006,-3.22751 -0.005,-3.28102 -1.10149,-5.50015 -1.11926,-2.26566 -3.05275,-4.45492 -6.18423,-7.00233 -3.49253,-2.84112 -3.86642,-7.747365 -0.83508,-10.957975 0.39219,-0.41538 1.6971,-1.3363 2.89979,-2.0465 6.1643,-3.64003 7.73907,-8.53381 4.57411,-14.214559 -1.09771,-1.970272 -4.91146,-5.645932 -7.94341,-7.655795 C 202.13962,61.39759 174.8304,56.09307 144.41349,57.253453 c -24.44928,0.932721 -48.624991,4.99736 -75.790491,12.742582 -7.08966,2.021352 -8.05286,2.190345 -8.61609,1.511699 -0.36662,-0.441759 -0.29178,-0.591995 0.75313,-1.511857 1.96908,-1.733428 14.38228,-6.870629 25.7814,-10.669627 21.946781,-7.314233 43.333311,-11.468535 67.592221,-13.129684 6.52468,-0.446784 26.4806,-0.435831 32.87888,0.01804 23.30451,1.653156 43.37222,5.809522 60.11334,12.450501 4.37331,1.734836 12.15769,5.622043 15.38111,7.680709 13.0197,8.315153 18.3014,17.221369 15.37716,25.929539 -1.18638,3.53291 -3.46646,6.54734 -7.93674,10.492935 -2.3086,2.03764 -2.71332,2.67761 -2.24576,3.55125 0.15787,0.295 1.53331,1.61552 3.05653,2.9345 5.51498,4.77553 8.42811,8.41118 9.86022,12.30575 0.99432,2.70398 1.11881,6.60691 0.28682,8.9919 -1.06384,3.04965 -4.31354,7.10914 -7.94811,9.92867 -12.78144,9.9153 -38.94712,17.39064 -69.29346,19.79663 -3.70562,0.2938 -18.6893,0.56956 -21.58999,0.39735 z m -54.27335,-11.9925 c -4.15678,-0.53967 -7.95715,-2.26605 -10.50947,-4.77412 -2.98685,-2.93507 -4.22052,-5.91001 -4.22052,-10.17766 0,-9.82191 8.78342,-19.37751 20.74334,-22.56696 3.26055,-0.86952 8.59805,-1.06762 11.72112,-0.43504 11.61163,2.35195 16.58862,12.50011 11.28406,23.00838 -3.15352,6.24709 -10.16919,11.72256 -17.88488,13.95848 -4.03993,1.17073 -7.41411,1.46982 -11.13365,0.98692 z m 26.65431,-53.154765 c -2.2853,-0.84348 -3.65687,-2.81893 -3.65914,-5.27017 -0.006,-6.19988 9.07336,-11.134782 14.41349,-7.834399 1.6067,0.992989 2.46104,2.581579 2.46659,4.586429 0.009,3.14335 -2.14906,6.09119 -5.76059,7.86987 -1.53813,0.75753 -2.21406,0.91866 -4.10573,0.97873 -1.43263,0.0455 -2.66493,-0.0759 -3.35462,-0.33046 z"
       id="path3756"
       inkscape:connector-curvature="0" />
  </g>
</svg>
